<svg xmlns="http://www.w3.org/2000/svg" viewBox="0 0 2120.69 501.12"><defs><style>.cls-1{fill:#69c6ab;}.cls-2{fill:#f4c13f;}.cls-3{fill:#e7f097;}</style></defs><g id="Camada_2" data-name="Camada 2"><g id="Camada_1-2" data-name="Camada 1"><rect class="cls-1" x="1.63" width="2118.63" height="250.56"/><rect class="cls-2" x="0.43" y="206.54" width="2118.63" height="294.58"/><polygon class="cls-3" points="1734.43 216.55 1733.4 216.51 1541.82 209.5 1349.22 216.55 1348.19 216.51 1156.62 209.5 964.02 216.55 962.99 216.51 771.41 209.5 578.82 216.55 577.79 216.51 386.22 209.5 193.62 216.55 192.59 216.51 0 209.46 2.06 196.56 193.62 203.58 386.22 196.53 387.25 196.56 578.82 203.58 771.41 196.53 772.44 196.56 964.02 203.58 1156.62 196.53 1157.65 196.56 1349.22 203.58 1541.82 196.53 1542.85 196.56 1734.43 203.58 1927.04 196.53 1928.07 196.56 2120.69 203.62 2118.63 216.51 1927.04 209.5 1734.43 216.55"/></g></g></svg>