<svg xmlns="http://www.w3.org/2000/svg" viewBox="0 0 343.31 311.42"><defs><style>.cls-1{fill:#fff;}</style></defs><g id="Camada_2" data-name="Camada 2"><g id="Camada_1-2" data-name="Camada 1"><path class="cls-1" d="M199.54,155.59c0,38.8.06,77.61,0,116.42,0,20.52-13.36,36-33.64,39-11.5,1.7-21.67-1.87-30.5-9.35-17.8-15.08-35.81-29.92-53.3-45.35-7.2-6.36-14.73-9.69-24.37-8.92-6.57.52-13.22.14-19.83.09C15.07,247.31.05,232.15,0,209.25q0-43,0-86.1c0-7.49-.06-15,0-22.46C.25,79.24,15.42,64,36.89,63.75c8.61-.11,17.22-.13,25.83,0a22.27,22.27,0,0,0,15.39-5.64q28.52-24.25,57.14-48.36C159-10.14,193.33,1.91,199,32.09a50.75,50.75,0,0,1,.53,9.32Q199.57,98.5,199.54,155.59Zm-24,.25q0-57.28,0-114.56a24.86,24.86,0,0,0-.7-7c-3.23-10.61-15.46-13.54-24.47-5.93Q121.8,52.5,93.27,76.71a44.38,44.38,0,0,1-30.22,11c-8.61-.11-17.22-.07-25.83,0C28.79,87.77,24,92.54,24,101q-.06,54.66,0,109.32c0,8.45,4.76,13.2,13.22,13.28,7.61.06,15.24.29,22.83-.05,14-.63,25.66,4.23,36.14,13.39,17.94,15.68,36.29,30.9,54.47,46.3,3.8,3.23,8.08,4.92,13.13,3.83,7.58-1.64,11.78-7.25,11.78-15.9Q175.62,213.49,175.58,155.84Z"/><path class="cls-1" d="M343.31,163.13c-.62,39.46-17.2,79.93-50,113.66-5.11,5.24-12.49,5.5-17.38.78s-5.06-12,.17-17.34c20.92-21.29,35-46.38,40.41-75.73,9-49.05-3.38-92.33-36.74-129.51-1.33-1.49-2.8-2.85-4.1-4.36a12,12,0,0,1,.68-16.83c4.83-4.48,12.18-4.56,16.76.63,7.41,8.4,15,16.79,21.29,26C333.5,88.41,343.25,121.51,343.31,163.13Z"/><path class="cls-1" d="M279.46,159.58c-.45,24.81-10.36,49.91-30.37,70.9-5.8,6.08-12.87,6.7-18.13,1.7s-5-12.05.77-18.17c29.37-31.16,31.81-76.77,5.85-110-2-2.55-4.22-4.92-6.41-7.3-5.23-5.68-5.32-12.8-.17-17.64,5-4.69,12.09-4.3,17.36,1C268,99.71,279.41,127.32,279.46,159.58Z"/></g></g></svg>