<svg xmlns="http://www.w3.org/2000/svg" viewBox="0 0 349.86 366.63"><defs><style>.cls-1{fill:#fff;}</style></defs><g id="Camada_2" data-name="Camada 2"><g id="Camada_1-2" data-name="Camada 1"><path class="cls-1" d="M313.78,183.32l33.8-45a11.36,11.36,0,0,0-2.27-15.91l-1-.75a11.37,11.37,0,0,0-15.91,2.27L298.8,163.35,269.19,123.9a11.37,11.37,0,0,0-15.91-2.27l-1,.75A11.36,11.36,0,0,0,250,138.29l33.79,45-33.79,45a11.36,11.36,0,0,0,2.26,15.91l1,.75a11.37,11.37,0,0,0,15.91-2.27l29.61-39.45,29.61,39.45A11.37,11.37,0,0,0,344.32,245l1-.75a11.36,11.36,0,0,0,2.27-15.91Z"/><path class="cls-1" d="M276.38,2.4A12,12,0,0,0,259.6,4.79l-51.05,68V69a50.75,50.75,0,0,0-.53-9.32c-5.65-30.18-40-42.22-63.74-22.33Q115.62,61.41,87.15,85.71a22.27,22.27,0,0,1-15.4,5.64c-8.6-.14-17.21-.12-25.82,0-21.47.27-36.64,15.49-36.86,36.94-.07,7.48,0,15,0,22.46q0,43,0,86.1c0,22.91,15.05,38.06,37.84,38.23,3.23,0,6.47.13,9.7.17L2.4,347.45a12,12,0,1,0,19.17,14.39L278.78,19.18A12,12,0,0,0,276.38,2.4ZM69.09,251.12c-7.6.34-15.22.11-22.83,0C37.8,251.09,33,246.34,33,237.89q0-54.66,0-109.32c0-8.43,4.79-13.21,13.22-13.28,8.61-.06,17.22-.1,25.83,0a44.42,44.42,0,0,0,30.22-11q28.56-24.21,57.13-48.38c9-7.62,21.24-4.69,24.46,5.92a24.5,24.5,0,0,1,.7,7q0,17.92,0,35.84L74.67,251.17A51.75,51.75,0,0,0,69.09,251.12Z"/><path class="cls-1" d="M208.57,148.5l-23.95,31.92v3q0,57.66,0,115.31c0,8.66-4.2,14.27-11.79,15.9-5,1.09-9.33-.6-13.13-3.82-14.86-12.6-29.82-25.08-44.6-37.78l-14.4,19.19c14.45,12.48,29.15,24.68,43.72,37,8.83,7.48,19,11.05,30.49,9.35,20.29-3,33.59-18.48,33.64-39,.1-38.8,0-77.61,0-116.42Z"/></g></g></svg>